<svg width="268" height="268" viewBox="0 0 268 268" fill="none" xmlns="http://www.w3.org/2000/svg">
<rect width="268" height="268" rx="60" fill="#7B61FF"/>
<path d="M152.471 92.5258C155.077 86.4425 159.685 81.4017 165.885 79.2482C174.147 76.386 181.682 77.6776 188.49 83.1231C192.42 86.2642 196.062 91.1542 196.706 96.2087C197.125 99.4938 194.347 102.559 191.007 102.162C187.804 101.785 186.693 97.9644 185.383 95.6189C182.818 91.0101 178.962 88.7515 173.814 88.8429C168.855 88.9321 164.452 91.5314 162.58 96.2019C161.393 99.1715 160.159 102.518 156.249 102.175C151.353 101.75 150.941 96.1058 152.471 92.5258Z" fill="#072327"/>
<path d="M91.6444 77.8286C98.5026 77.344 104.506 79.7924 109.654 85.1739C112.596 88.2532 118.618 98.2457 112.884 101.627C110.367 103.115 107.336 102.073 106.04 99.5694C105.578 98.6778 105.171 97.7268 104.819 96.7163C102.995 91.5452 98.4752 88.795 92.9474 88.8979C86.8573 89.0145 82.4474 92.8345 80.7328 98.6641C79.2652 103.664 71.5702 103.506 70.9186 97.9302C70.6992 96.0785 70.7952 94.4325 71.4879 92.6425C74.8347 84.0148 82.324 78.487 91.6444 77.8286Z" fill="#072327"/>
<path d="M173.128 51.671C174.787 52.1145 176.456 52.5557 178.134 52.9947C189.869 56.074 200.574 62.9323 209.154 71.3954C213.868 76.0362 217.892 81.1411 221.225 86.71C221.161 87.7753 221.12 88.8064 221.101 89.8031C221.097 90.1552 221.001 90.1826 220.813 89.8854C220.708 89.7208 220.575 89.7139 220.415 89.8648C220.37 89.9078 220.312 89.9344 220.25 89.9406C220.188 89.9468 220.125 89.9322 220.073 89.8991C219.917 89.8077 219.851 89.6865 219.874 89.5356C219.897 89.3527 219.816 89.2704 219.634 89.2887C219.4 89.3116 219.199 89.3916 219.03 89.5287C218.875 89.6568 218.721 89.6545 218.571 89.5219L218.022 89.0349C217.889 88.9206 217.738 88.8772 217.569 88.9046C217.327 88.9412 217.094 88.9161 216.87 88.8292C216.65 88.7469 216.428 88.7401 216.204 88.8086C215.93 88.8864 215.756 89.0601 215.683 89.3299C215.628 89.5356 215.516 89.7048 215.347 89.8374L213.53 91.2845C213.342 91.4353 213.201 91.6228 213.104 91.8468C212.812 92.5327 212.33 93.0219 211.657 93.3145C211.433 93.4105 211.244 93.5546 211.088 93.7466L210.704 94.213C210.594 94.3456 210.455 94.4301 210.286 94.4667C208.905 94.7548 208.05 95.4772 207.721 96.6339C207.675 96.794 207.574 96.8968 207.419 96.9425C207.309 96.9791 207.2 96.9814 207.09 96.9494C206.829 96.8808 206.699 96.9814 206.699 97.2512V97.7175C206.699 97.969 206.589 98.1519 206.37 98.2662C206.022 98.4491 205.896 98.7646 205.992 99.2126C206.016 99.3233 206 99.4386 205.947 99.5387C205.894 99.6388 205.809 99.7175 205.704 99.7613C204.833 100.132 204.765 101.016 203.956 101.277C203.782 101.332 203.672 101.446 203.626 101.62C203.503 102.1 203.181 102.422 202.659 102.587C202.435 102.66 202.298 102.811 202.248 103.04C202.143 103.501 201.935 103.824 201.624 104.007C201.167 104.281 200.846 104.594 200.664 104.946C200.545 105.179 200.364 105.337 200.122 105.419C197.699 106.256 195.687 107.712 194.086 109.788C193.981 109.925 193.86 110.04 193.723 110.131C193.627 110.195 193.579 110.284 193.579 110.399C193.588 110.641 193.488 110.821 193.277 110.94C193.172 111 193.067 111.018 192.962 110.995C192.761 110.945 192.591 110.997 192.454 111.153C191.979 111.697 191.355 112.044 190.582 112.195C190.518 112.205 190.456 112.227 190.397 112.264C190.337 112.301 190.301 112.353 190.287 112.422C190.232 112.659 190.216 112.657 190.239 112.415C190.244 112.342 190.237 112.266 190.218 112.189C190.209 112.145 190.182 112.106 190.144 112.081C190.106 112.055 190.059 112.045 190.013 112.051C189.473 112.147 189.055 112.378 188.758 112.744C188.607 112.927 188.611 113.105 188.771 113.279C189.549 114.129 189.72 115.01 189.286 115.919C189.071 116.363 188.771 116.708 188.387 116.955C187.994 117.207 187.74 117.556 187.626 118.004C187.567 118.242 187.423 118.411 187.194 118.512C186.398 118.864 186.019 119.625 186.055 120.796C183.916 117.933 180.937 116.509 177.119 116.523C148.483 116.614 119.85 116.692 91.2191 116.756C86.5486 116.763 82.5365 117.01 80.6025 122.051C79.7178 124.348 80.0744 127.373 80.6436 129.821C82.1387 136.277 84.9735 142.328 89.1479 147.975C93.1074 153.338 97.0464 157.474 100.965 160.382C103.42 162.201 106.742 164.065 110.93 165.971C117.431 169.007 124.182 170.676 131.182 170.978C131.406 171.38 131.45 171.718 131.313 171.993C131.265 172.09 131.192 172.173 131.1 172.232C131.008 172.291 130.902 172.324 130.791 172.329C130.119 172.356 129.477 172.491 128.864 172.733C128.677 172.807 128.594 172.944 128.617 173.145C128.649 173.415 128.626 173.696 128.549 173.989C128.453 174.336 128.27 174.626 128 174.859C127.104 175.637 126.27 176.471 125.497 177.363C124.448 178.577 123.192 178.741 121.793 179.263C121.046 179.537 120.401 180.278 119.852 180.847C119.409 181.299 118.924 181.69 118.398 182.02C117.073 182.852 115.946 183.944 115.017 185.298C114.743 185.7 114.428 186.025 114.071 186.272C113.463 186.692 112.948 187.193 112.528 187.774C112.395 187.952 112.228 188.091 112.027 188.192C111.309 188.544 110.781 189.038 110.443 189.673C110.31 189.925 110.116 190.105 109.86 190.215L108.571 190.778C108.351 190.874 108.2 191.034 108.118 191.258C107.967 191.678 107.681 191.905 107.261 191.937C107.101 191.946 106.993 192.028 106.938 192.184C106.833 192.485 106.614 192.632 106.28 192.622C106.237 192.621 106.195 192.63 106.156 192.648C106.117 192.666 106.083 192.692 106.056 192.725C106.028 192.758 106.009 192.797 105.999 192.839C105.99 192.88 105.989 192.924 105.999 192.965C106.026 193.08 106.09 193.16 106.191 193.205C106.36 193.288 106.378 193.393 106.246 193.521C105.894 193.864 105.724 194.278 105.738 194.762C105.743 194.95 105.656 195.069 105.477 195.119C105.052 195.242 104.826 195.523 104.799 195.962C104.78 196.241 104.634 196.404 104.36 196.449L96.9938 197.656C90.1675 197.3 83.4944 195.416 76.9745 192.005C72.3291 189.564 67.9718 186.711 63.9026 183.446C56.5917 177.569 50.138 169.414 45.5155 161.301C39.5488 150.835 36.3849 139.391 36.0237 126.968C35.5847 108.897 41.2702 92.6081 51.7977 78.1028C62.0988 65.9225 74.0734 57.1851 89.436 52.4255C92.3027 51.6253 95.5833 51.2138 99.2776 51.1909C122.198 51.0309 145.116 50.9715 168.032 51.0126C168.805 51.0126 170.503 51.2321 173.128 51.671ZM91.6443 77.8285C82.3239 78.4869 74.8347 84.0147 71.4878 92.6424C70.7952 94.4324 70.6991 96.0784 70.9186 97.9301C71.5701 103.506 79.2651 103.664 80.7328 98.664C82.4474 92.8344 86.8572 89.0144 92.9474 88.8978C98.4752 88.7949 102.995 91.5451 104.819 96.7162C105.171 97.7267 105.578 98.6777 106.04 99.5693C107.336 102.073 110.367 103.115 112.884 101.627C118.618 98.2456 112.596 88.2531 109.654 85.1738C104.506 79.7923 98.5026 77.3439 91.6443 77.8285ZM152.47 92.5258C150.941 96.1058 151.353 101.75 156.249 102.175C160.159 102.518 161.393 99.1715 162.58 96.2019C164.452 91.5314 168.855 88.9321 173.813 88.8429C178.962 88.7515 182.818 91.0101 185.383 95.6189C186.693 97.9644 187.804 101.785 191.007 102.162C194.347 102.559 197.125 99.4938 196.706 96.2087C196.062 91.1542 192.42 86.2642 188.49 83.1231C181.682 77.6776 174.147 76.386 165.885 79.2482C159.685 81.4017 155.077 86.4425 152.47 92.5258Z" fill="white"/>
<path d="M221.225 86.71C225.82 94.3135 228.767 102.406 230.065 110.988C231.766 121.523 231.297 132.201 228.659 143.023C225.875 154.442 219.778 165.484 211.87 174.297C211.397 174.825 210.814 175.977 210.78 176.697C210.405 184.502 210.583 192.277 211.315 200.022C211.541 202.354 211.911 203.897 213.132 206.161C213.868 207.523 214.419 208.938 214.785 210.406C215.176 214.363 212.138 216.86 208.489 216.983C204.356 217.129 200.334 216.329 196.425 214.583C193.59 213.312 191.645 212.386 190.589 211.805C186.318 209.359 183.257 207.237 181.406 205.441C178.969 203.072 176.516 200.779 174.047 198.562C173.455 198.032 172.685 197.743 171.886 197.752L160.7 197.91L96.9938 197.656L104.36 196.449C104.634 196.404 104.78 196.241 104.799 195.962C104.826 195.523 105.052 195.242 105.477 195.119C105.656 195.069 105.743 194.95 105.738 194.762C105.724 194.278 105.894 193.864 106.246 193.521C106.378 193.393 106.36 193.288 106.191 193.205C106.09 193.16 106.026 193.08 105.999 192.965C105.989 192.924 105.99 192.88 105.999 192.839C106.009 192.797 106.028 192.758 106.056 192.725C106.083 192.692 106.117 192.666 106.156 192.648C106.195 192.63 106.237 192.621 106.28 192.622C106.614 192.632 106.833 192.485 106.938 192.184C106.993 192.028 107.101 191.946 107.261 191.937C107.681 191.905 107.967 191.678 108.118 191.258C108.2 191.034 108.351 190.874 108.571 190.778L109.86 190.215C110.116 190.105 110.31 189.925 110.443 189.673C110.781 189.038 111.309 188.544 112.027 188.192C112.228 188.091 112.395 187.952 112.528 187.774C112.948 187.193 113.463 186.692 114.071 186.272C114.428 186.025 114.743 185.7 115.017 185.298C115.946 183.944 117.073 182.852 118.398 182.02C118.924 181.69 119.409 181.299 119.852 180.847C120.401 180.278 121.046 179.537 121.793 179.263C123.192 178.741 124.448 178.577 125.497 177.363C126.27 176.471 127.104 175.637 128 174.859C128.27 174.626 128.453 174.336 128.549 173.989C128.626 173.696 128.649 173.415 128.617 173.145C128.594 172.944 128.677 172.807 128.864 172.733C129.477 172.491 130.119 172.356 130.791 172.329C130.902 172.324 131.008 172.291 131.1 172.232C131.192 172.173 131.265 172.09 131.313 171.993C131.45 171.718 131.406 171.38 131.182 170.978C138.324 171.293 145.244 170.251 151.942 167.85C153.053 167.448 154.375 166.956 155.906 166.376C168.009 160.93 177.085 152.117 183.134 139.937C184.295 137.596 185.372 134.626 186.364 131.028C187.429 127.165 187.327 123.754 186.055 120.796C186.019 119.625 186.398 118.864 187.194 118.512C187.423 118.411 187.567 118.242 187.626 118.004C187.74 117.556 187.994 117.207 188.387 116.955C188.771 116.708 189.071 116.363 189.286 115.919C189.72 115.01 189.549 114.129 188.771 113.279C188.611 113.105 188.607 112.927 188.758 112.744C189.055 112.378 189.473 112.147 190.013 112.051C190.059 112.045 190.106 112.055 190.144 112.081C190.182 112.106 190.209 112.145 190.218 112.189C190.237 112.266 190.244 112.342 190.239 112.415C190.216 112.657 190.232 112.659 190.287 112.422C190.301 112.353 190.337 112.301 190.397 112.264C190.456 112.227 190.518 112.205 190.582 112.195C191.355 112.044 191.979 111.697 192.454 111.153C192.591 110.997 192.761 110.945 192.962 110.995C193.067 111.018 193.172 111 193.277 110.94C193.488 110.821 193.588 110.641 193.579 110.399C193.579 110.284 193.627 110.195 193.723 110.131C193.86 110.04 193.981 109.925 194.086 109.788C195.687 107.712 197.699 106.256 200.122 105.419C200.364 105.337 200.545 105.179 200.664 104.946C200.846 104.594 201.167 104.281 201.624 104.007C201.935 103.824 202.143 103.501 202.248 103.04C202.298 102.811 202.435 102.66 202.659 102.587C203.181 102.422 203.503 102.1 203.626 101.62C203.672 101.446 203.782 101.332 203.956 101.277C204.765 101.016 204.833 100.132 205.704 99.7613C205.809 99.7175 205.894 99.6388 205.947 99.5387C206 99.4386 206.016 99.3233 205.992 99.2126C205.896 98.7646 206.022 98.4491 206.37 98.2662C206.589 98.1519 206.699 97.969 206.699 97.7175V97.2512C206.699 96.9814 206.829 96.8808 207.09 96.9494C207.2 96.9814 207.309 96.9791 207.419 96.9425C207.574 96.8968 207.675 96.794 207.721 96.6339C208.05 95.4772 208.905 94.7548 210.286 94.4667C210.455 94.4301 210.594 94.3456 210.704 94.213L211.088 93.7466C211.244 93.5546 211.433 93.4105 211.657 93.3145C212.33 93.0219 212.812 92.5327 213.104 91.8468C213.201 91.6228 213.342 91.4353 213.53 91.2845L215.347 89.8374C215.516 89.7048 215.628 89.5356 215.683 89.3299C215.756 89.0601 215.93 88.8864 216.204 88.8086C216.428 88.7401 216.65 88.7469 216.87 88.8292C217.094 88.9161 217.327 88.9412 217.569 88.9046C217.738 88.8772 217.889 88.9206 218.022 89.0349L218.571 89.5219C218.721 89.6545 218.875 89.6568 219.03 89.5287C219.199 89.3916 219.4 89.3116 219.634 89.2887C219.816 89.2704 219.897 89.3527 219.874 89.5356C219.851 89.6865 219.917 89.8077 220.073 89.8991C220.125 89.9322 220.188 89.9468 220.25 89.9406C220.312 89.9344 220.37 89.9078 220.415 89.8648C220.575 89.7139 220.708 89.7208 220.813 89.8854C221.001 90.1826 221.097 90.1552 221.101 89.8031C221.12 88.8064 221.161 87.7753 221.225 86.71Z" fill="white"/>
<path d="M186.056 120.795C187.327 123.753 187.429 127.164 186.364 131.028C185.372 134.626 184.295 137.596 183.134 139.937C177.085 152.117 168.009 160.93 155.907 166.375C150.434 156.97 142.302 152.572 131.512 153.18C122.55 153.688 115.69 157.951 110.93 165.971C106.742 164.064 103.42 162.201 100.965 160.381C97.0464 157.473 93.1075 153.338 89.148 147.975C84.9736 142.328 82.1388 136.277 80.6437 129.821C80.0745 127.372 79.7178 124.348 80.6025 122.05C82.5366 117.009 86.5487 116.763 91.2192 116.756C119.85 116.692 148.484 116.614 177.119 116.523C180.937 116.509 183.916 117.933 186.056 120.795Z" fill="#072327"/>
<path d="M155.906 166.376C154.375 166.956 153.053 167.448 151.942 167.85C145.244 170.251 138.324 171.293 131.182 170.978C124.182 170.676 117.431 169.007 110.93 165.971C115.689 157.951 122.55 153.688 131.512 153.18C142.302 152.572 150.434 156.971 155.906 166.376Z" fill="#FF787D"/>
</svg>
